<svg width="170" height="70" viewBox="0 0 170 70" fill="none" xmlns="http://www.w3.org/2000/svg">
<rect x="0.304688" width="169" height="70" rx="10" fill="#E3E3E3"/>
<g clip-path="url(#clip0_178_461)">
<rect x="7.30469" y="7" width="147" height="56" rx="4" fill="white"/>
<path d="M23.7207 48H17.2407V14.4H32.3607C38.8407 14.4 43.1607 18.24 43.1607 24.96C43.1607 31.68 38.8407 35.568 32.3607 35.568H23.7207V48ZM23.7207 20.16V29.808H31.6407C35.0007 29.808 36.6807 27.84 36.6807 24.96C36.6807 22.08 35.0007 20.16 31.6407 20.16H23.7207ZM50.7475 48H44.2675V14.4H59.8675C65.6275 14.4 70.1875 18.24 70.1875 23.52C70.1875 27.792 68.3155 30.576 64.4755 32.016C68.1235 32.016 69.7075 33.744 69.7075 36.768V48H63.2275V38.4C63.2275 36 62.5075 35.28 60.1075 35.28H50.7475V48ZM50.7475 20.16V29.616H57.9475C61.7875 29.616 63.7075 27.888 63.7075 24.768C63.7075 21.648 61.7875 20.16 57.9475 20.16H50.7475ZM83.8834 48.48C74.6674 48.48 70.4434 43.68 70.2034 36.72H76.6834C76.9234 40.08 79.3234 42.72 84.3634 42.72H84.8434C88.4434 42.72 90.3154 40.8 90.3154 38.64C90.3154 36.72 89.4994 35.568 86.5234 34.944L80.5234 33.696C74.5234 32.448 71.8834 28.992 71.8834 24C71.8834 18.96 76.3474 13.92 84.6034 13.92C92.7634 13.92 97.3234 18.576 97.3234 24.96H90.8434C90.6034 21.456 88.0594 19.68 84.6034 19.68H84.1234C80.5234 19.68 78.3634 21.6 78.3634 23.76C78.3634 25.968 79.5634 26.976 82.4434 27.552L87.4834 28.56C93.2434 29.712 96.7954 32.688 96.7954 38.16C96.7954 43.92 92.1874 48.48 83.8834 48.48ZM117.412 40.8L125.572 14.4H135.604V48H129.268V21.504L120.916 48H113.812L105.22 21.456V48H98.8836V14.4H108.964L117.412 40.8Z" fill="black"/>
</g>
<g clip-path="url(#clip1_178_461)">
<path d="M159.305 25V45" stroke="#8E9194" stroke-width="1.5"/>
<path d="M164.306 25V45" stroke="#8E9194" stroke-width="1.5"/>
</g>
<defs>
<clipPath id="clip0_178_461">
<rect width="147" height="56" fill="white" transform="translate(7.30469 7)"/>
</clipPath>
<clipPath id="clip1_178_461">
<rect width="20" height="7" fill="white" transform="matrix(0 -1 1 0 158.305 45)"/>
</clipPath>
</defs>
</svg>
